<svg width="520" height="520" viewBox="0 0 520 520" fill="none" xmlns="http://www.w3.org/2000/svg">
<mask id="mask0_bagel" style="mask-type:alpha" maskUnits="userSpaceOnUse" x="0" y="0" width="520" height="520">
<path d="M0 184.335C0 119.812 0 87.5502 12.5571 62.9055C23.6026 41.2274 41.2274 23.6026 62.9055 12.5571C87.5502 0 119.812 0 184.335 0H335.665C400.188 0 432.45 0 457.094 12.5571C478.773 23.6026 496.397 41.2274 507.443 62.9055C520 87.5502 520 119.812 520 184.335V335.665C520 400.188 520 432.45 507.443 457.094C496.397 478.773 478.773 496.397 457.094 507.443C432.45 520 400.188 520 335.665 520H184.335C119.812 520 87.5502 520 62.9055 507.443C41.2274 496.397 23.6026 478.773 12.5571 457.094C0 432.45 0 400.188 0 335.665V184.335Z" fill="#FFFFFF"/>
</mask>
<g mask="url(#mask0_bagel)">
<rect width="520" height="520" fill="#E35B2F"/>
<path d="M319.146 225.813C321.737 228.034 324.893 231.469 327.188 233.761L328.141 234.708C326.857 232.945 329.309 228.323 332.376 223.445C345.736 204.122 375.492 174.33 399.492 155.168C421.189 138.028 424.189 139.673 425.153 140.318L422.125 138.241C417.508 134.761 410.317 127.041 404.806 122.264C403.729 121.384 396.642 127.793 384.222 141.327C363.906 164.005 337.638 196.955 325.325 214.585C320.908 221.016 318.96 224.422 319.146 225.813Z" fill="white"/>
<path d="M343.5 233.262C339.267 239.693 338.118 244.397 339.741 246.365C341.757 248.971 344.211 252.495 346.221 257.28C344.203 254.311 344.947 249.6 348.739 243.344C362.099 224.021 397.34 202.602 426.956 192.739C446.919 185.784 458.978 186.027 462.095 191.548C457.797 184.14 452.412 174.266 447.327 167.327C444.252 163.247 433.872 165.254 415.8 174.732C387.452 189.354 355.823 215.623 343.5 233.262Z" fill="white"/>
<path d="M303.41 200.825C298.932 207.941 296.25 210.921 295.08 210.281C297.743 211.744 301.122 213.291 303.768 214.618L306.038 215.908C306.348 216.096 308.393 213.359 313.189 206.187C326.549 186.865 347.14 153.043 362.28 126.905C371.376 111.018 376.237 103.395 375.705 103.055L370.609 98.8364C365.465 96.0751 358.181 92.2759 352.5 88.9389C354.425 89.7551 352.262 99.9064 345.9 117.144C333.612 145.294 315.748 181.503 303.41 200.794V200.825Z" fill="white"/>
<path d="M207.149 277.632L204.451 272.058L202.38 267.096C199.412 259.095 184.218 255.604 161.34 259.117C128.178 264.96 92.1063 284.373 80.1062 301.962C76.3937 307.334 75.4844 312.3 76.8447 315.963L82.3368 328.445L89.2896 341.894C87.4007 338.464 88.3419 333.696a 92.5925 328.004C106.596 310.395 139.133 287.873 170.028 277.996C183.828 273.766 201.342 269.952 207.149 277.694V277.632Z" fill="white"/>
<path d="M247.11 318.512C244.502 316.735 240.644 314.044 237.862 312.461L236.445 311.496C235.651 311.007 228.504 317.394 216.515 331.154C196.661 354.865 171.031 387.404 159.061 405.033C154.644 411.629 152.696 414.925 153.232 415.279L156.115 417.384C161.637 421.825 169.742 427.809 175.781 432.208C176.054 432.385 178.379 429.451 183.335 422.13C196.695 402.807 217.572 369.156 233.42 343.239C243.171 327.39 247.772 319.233 247.11 318.497V318.512Z" fill="white"/>
<path d="M273.277 331.179C270.838 330.259 267.006 328.608 264.332 327.579L261.773 326.505C264.601 327.475 262.713 338.132 254.904 355.616C244.847 383.496 226.636 421.658 214.306 439.212C209.889 445.594 207.116 448.644 205.434 447.997L211.717 450.724C216.861 452.461 225.456 454.659 231.479 458.517C233.434 459.368 236.398 457.036 241.078 449.864C253.438 430.541 268.302 392.423 273.936 362.875C277.138 345.939 276.481 332.126 273.277 331.21V331.179Z" fill="white"/>
<path d="M299.427 336.192C297.372 336.039 294.67 335.795 292.615 335.58L288.505 335.104c6.095 1.065 9.461 11.382 9.317 36.871C297.663 400.304 288.66 440.092 275.275 458.017C270.858 464.353 267.137 466.725 263.229 466.073L273.372 467.668C278.516 468.259 285.468 468.576 290.643 468.972C294.087 469.228 297.669 467.034 301.046 461.761C313.406 442.423 319.335 403.233 316.929 371.098C314.982 349.311 308.512 336.771 299.427 336.223V336.192Z" fill="white"/>
<path d="M322.155 334.668C320.826 334.973 319.095 335.309 317.766 335.599L312.388 336.374C318.499 335.919 330.005 339.283 340.986 371.189c13.335 45.048 6.684 92.995 -9.461 96.317L348.889 467.73C353.085 466.969 349.572 465.791 363.685 464.993C367.129 464.333 370.711 462.139 374.088 456.651C386.448 437.328 384.589 398.855 371.187 367.379C349.16 343.543 334.469 332.538 322.155 334.668Z" fill="white"/>
<path d="M339.436 327.806L336.753 329.652C335.725 330.244 334.228 330.914 333.168 331.476C337.638 329.377 356.892 325.428 381.809 360.095C406.264 397.705 408.602 441.527 387.904 453.479C391.932 451.161 397.557 447.743 401.539 445.241L411.285 438.881C413.45 437.422 415.446 435.498 417.163 432.84C429.523 413.517 421.099 378.969 398.183 351.662C377.525 327.195 353.533 318.237 339.467 327.806H339.436Z" fill="white"/>
<path d="M302.709 102.93C301.896 134.546 291.398 174.809 278.985 192.529C273.275 201.278 268.95 201.136 267.183 201.059C269.252 201.52 272.151 202.292 275.934 202.986L280.044 204.164C282.169 204.833 285.485 202.217 290.107 195.456C302.467 176.133 316.436 138.29 321.24 108.037C323.979 88.9618 324.117 77.7872 320.446 76.4649L311.385 73.9913C306.241 72.7174 299.289 71.5823 293.941 70.0264C302.154 72.2544 302.916 88.4458 302.709 103.008V102.93Z" fill="white"/>
<path d="M259.53 100.236C269.065 132.549 267.096 173.078 254.683 190.798C251.405 195.473 247.546 198.523 243.36 199.126C245.429 198.959 247.701 198.928 250.115 198.897L255.493 199.048c5.421 -0.062 8.506 -3.723 12.05 -8.673C279.903 172.15 285.475 132.564 281.003 100.251C277.569 78.0562 269.356 66.6906 260.241 65.3317L248.536 65.0654C243.392 65.0654 236.751 65.486 231.403 65.672C241.94 64.733 253.219 77.4491 259.53 100.313V100.236Z" fill="white"/>
<path d="M218.052 110.063C237.018 140.054 243.05 178.648 231.155 196.382C228.809 199.858 225.846 202.506 222.505 204.117L225.862 202.52C227.431 201.855 229.548 201.142 231.148 200.523C234.754 199.126 238.159 196.794 241.267 192.452C253.627 173.129 251.358 135.656 235.51 103.875C224.485 80.4989 209.762 68.2991 197.795 71.3056C193.378 72.5184 186.737 74.9188 182.009 76.6516L169.835 80.5834C183.949 75.0626 202.544 86.0668 218.052 110.001V110.063Z" fill="white"/>
<path d="M184.939 131.24C212.381 156.147 224.226 190.813 211.813 208.533C210.689 210.419 209.347 211.897 207.836 213.108L209.379 211.647C210.407 210.679 211.831 209.435 212.89 208.482C215.237 206.841 217.415 204.797 219.406 202.216C231.766 182.893 222.471 148.16 198.356 120.579C177.04 96.1308 153.048 87.1733 139.118 97.1071C135.091 99.884 129.465 104.841 124.738 108.118L116.598 114.631C130.712 101.882 159.825 107.799 184.939 131.24Z" fill="white"/>
<path d="M162.667 161.09C189.123 175.239 210.564 199.787 201.009 223.032C201.657 221.568 202.78 219.589 203.473 218.171c0.145 -0.153 0.227 -0.321 0.34 -0.474L203.99 217.392C203.99 217.392 204.44 216.652 204.585 216.316C216.945 197.009 201.422 168.133 171.117 146.791C141.258 125.755 106.995 122.803 94.6194 140.338L92.3125 143.777C89.0969 149.492 84.6797 156.404 81.2 162.896C81.4641 162.554 81.7282 162.213 82.0243 161.856C94.3844 142.548 129.984 142.518 162.667 161.09Z" fill="white"/>
<path d="M81.2 162.912C81.006 163.318 80.8118 163.709 80.6177 164.115C80.8118 163.724 81.006 163.318 81.2 162.912Z" fill="white"/>
<path d="M152.185 197.076C180.089 204.675 199.176 221.232 197.424 236.779C197.662 235.191 198.153 232.913 198.422 231.356L199.051 229.204C203.086 212.982 185.621 192.087 155.316 181.056C120.589 167.387 77.7728 169.573 68.7117 195.175L66.742 202.199C65.6499 207.714 64.5577 214.641 63.5975 222.225C66.633 201.245 103.556 186.387 152.185 197.076Z" fill="white"/>
<path d="M154.442 236.825C171.726 236.903 193.889 240.159 198.376 254.982C197.988 253.163 197.6 250.885 197.345 249.066L197.085 245.978C196.248 233.346 178.799 222.284 151.897 218.639C116.873 214.429 78.6167 225.659 66.5032 243.542C63.8617 247.629 62.8015 251.838 63.2924 256.094L64.5577 267.05C65.2509 271.855 66.48 277.768 67.3082 282.695C63.3566 263.296 103.06 237.293 154.442 236.825V236.825Z" fill="white"/>
<path d="M197.345 314.889C212.223 303.385 221.669 297.836 224.003 300.331C221.286 297.637 218.336 293.886 215.9 291.147L215.619 290.836C212.671 287.447 201.053 289.715 183.948 299.332C156.299 314.185 124.67 340.469 112.556 358.352C108.139 364.719 106.191 368.138 107.962 370.163L108.56 371.094C113.704 377.843 121.844 386.652 127.883 391.616C126.516 390.069 127.883 386.268 132.073 380.305C144.433 360.982 173.548 333.704 197.345 314.905V314.889Z" fill="white"/>
<path d="M425.798 325.306C400.684 308.166 364.843 298.628 349.788 318.375C348.437 320.258 348.406 320.335 345.799 322.707C359.913 310.028 388.735 315.533 414.538 338.058C441.75 362.725 454.11 397.427 442.1 414.567C441.186 415.864 440.195 416.956 439.08 418.001C445.068 411.531 445.253 411.272 457.613 397.641C467.044 387.173 466.032 359.764 425.798 325.337V325.306Z" fill="white"/>
<path d="M441.494 292.154C407.331 278.516 370.214 282.139 357.854 299.279C356.328 301.819 356.198 302.056 354.894 305.754C354.477 307.164 353.866 308.835 353.372 310.153L353.001 311.145C353.432 310.322 354.136 309.186 354.628 308.377C366.988 291.238 401.46 290.86 433.86 307.713C465.087 324.565 482.583 346.758 475.683 368.689L478.015 363.128C480.639 357.428 483.675 349.295 485.882 343.335C489.527 331.583 480.856 312.414 441.525 292.185L441.494 292.154Z" fill="white"/>
<path d="M490.966 282.435C490.688 277.188 486.86 260.35 445.421 254.373C410.397 249.751 372.141 260.905 360.027 278.728C356.812 283.892 356.743 286.548 356.673 289.905C356.743 291.483 356.673 293.397 356.673 295.388L356.535 297.409C356.812 294.451 357.916 291.483 359.99 288.664C372.35 271.524 406.822 265.237 445.036 272.443C474.653 278.223 491.843 294.344 490.257 309.738L490.796 302.652C491.075 297.501 490.796 289.905 490.966 282.435Z" fill="white"/>
<path d="M436.697 213.353C403.859 217.699 367.697 234.549 355.337 251.689C350.92 258.148 351.995 261.598 352.735 263.893C353.476 265.699 354.294 267.843 354.956 269.649L356.259 273.316C354.862 267.233 356.992 263.588 359.181 266.011C371.541 248.871 404.753 233.607 439.47 232.803C455.333 232.558 473.715 235.394 477.819 248.551L475.156 236.81C473.801 232.589 471.543 227.251 469.837 222.61C467.505 217.226 459.365 209.883 436.697 213.337V213.353Z" fill="white"/>
</g>
</svg>
